<?xml version="1.0" encoding="UTF-8" standalone="no"?>
<!DOCTYPE svg PUBLIC "-//W3C//DTD SVG 1.1//EN" "http://www.w3.org/Graphics/SVG/1.1/DTD/svg11.dtd">
<svg xmlns="http://www.w3.org/2000/svg" version="1.1" viewBox="0.00 0.00 1254.00 1254.00">
<path fill="#ffffff" d="
  M 487.23 1048.40
  L 489.37 1053.08
  A 0.46 0.46 0.0 0 1 488.68 1053.64
  L 482.85 1049.31
  A 0.92 0.92 0.0 0 0 481.74 1049.33
  C 461.60 1065.32 440.44 1078.61 417.75 1086.26
  C 394.81 1093.99 371.88 1093.22 348.97 1085.76
  Q 329.64 1079.46 309.13 1068.88
  Q 268.68 1048.01 233.70 1020.56
  C 213.05 1004.36 194.71 987.13 179.04 966.57
  C 160.86 942.71 148.93 914.58 144.71 885.29
  Q 141.56 863.34 143.62 838.11
  Q 146.08 808.10 152.76 777.23
  Q 157.27 756.38 163.19 732.20
  A 1.09 1.07 -61.4 0 0 162.89 731.16
  C 162.09 730.41 161.03 729.94 159.84 729.00
  Q 153.76 724.18 149.06 716.41
  C 138.51 698.97 133.53 679.12 131.95 659.02
  Q 129.70 630.30 139.49 602.04
  Q 144.92 586.37 153.44 574.69
  Q 157.54 569.08 164.72 563.67
  A 0.77 0.75 -26.1 0 0 165.00 562.87
  L 152.37 513.13
  A 1.31 1.28 -84.7 0 0 151.68 512.28
  C 150.28 511.63 148.27 510.88 147.07 510.05
  C 132.53 500.03 132.86 477.56 148.47 468.72
  C 172.02 455.37 196.64 482.29 180.47 504.15
  A 0.93 0.93 0.0 0 0 180.34 505.04
  L 195.39 546.87
  A 0.32 0.31 -20.4 0 0 195.80 547.05
  Q 210.03 541.56 224.07 546.68
  A 0.55 0.55 0.0 0 0 224.77 546.37
  L 231.51 530.47
  A 0.80 0.79 31.7 0 0 231.29 529.55
  C 218.85 518.90 212.82 501.14 223.69 487.16
  Q 228.96 480.38 237.50 477.48
  A 0.68 0.68 0.0 0 0 237.90 476.55
  Q 200.16 394.07 193.90 303.59
  Q 191.40 267.39 193.83 230.76
  Q 196.33 193.22 208.69 157.95
  Q 210.53 152.68 214.54 145.04
  Q 229.08 117.28 260.28 114.75
  C 277.25 113.37 294.43 117.71 309.92 123.11
  Q 335.88 132.17 361.84 146.96
  C 403.19 170.52 441.86 200.96 474.67 236.47
  A 0.50 0.50 0.0 0 0 475.27 236.57
  Q 509.04 218.73 545.50 209.03
  C 586.61 198.10 631.87 196.22 674.49 201.79
  Q 731.55 209.25 782.48 236.26
  A 0.52 0.51 -54.0 0 0 783.09 236.16
  Q 792.64 226.14 803.40 216.43
  Q 852.22 172.34 910.72 141.99
  Q 936.35 128.69 962.06 120.85
  C 976.47 116.46 990.99 113.08 1006.50 115.81
  Q 1027.03 119.43 1038.45 137.36
  Q 1045.62 148.63 1049.91 162.58
  C 1061.09 198.92 1063.57 237.21 1062.07 275.52
  C 1060.78 308.33 1056.83 338.80 1049.00 371.68
  Q 1036.26 425.17 1014.74 475.73
  A 0.44 0.43 19.1 0 0 1015.03 476.32
  C 1030.85 480.70 1040.83 493.62 1036.73 510.56
  Q 1034.37 520.31 1027.00 527.03
  Q 1026.32 527.64 1024.32 529.61
  A 0.84 0.83 56.2 0 0 1024.14 530.54
  Q 1048.06 585.67 1065.12 643.62
  Q 1081.59 699.58 1094.66 762.96
  Q 1101.47 796.01 1105.27 832.26
  Q 1106.38 842.81 1106.39 856.01
  C 1106.44 904.86 1087.14 952.20 1054.32 988.38
  Q 1039.23 1005.02 1019.65 1020.91
  Q 984.76 1049.22 942.98 1070.23
  Q 919.08 1082.25 897.74 1087.90
  Q 868.46 1095.65 840.70 1088.07
  C 816.38 1081.42 791.62 1066.61 771.57 1049.84
  A 0.34 0.32 48.2 0 0 771.18 1049.81
  L 764.41 1053.99
  A 0.68 0.68 0.0 0 1 763.42 1053.14
  L 764.58 1050.41
  A 0.27 0.27 0.0 0 0 764.11 1050.16
  Q 755.34 1063.28 741.30 1071.31
  Q 737.44 1073.52 733.53 1074.35
  A 1.66 1.65 -84.4 0 1 731.67 1072.08
  L 732.52 1070.08
  A 0.51 0.51 0.0 0 0 731.67 1069.55
  Q 718.95 1083.71 701.79 1091.06
  C 698.68 1092.40 690.80 1095.40 687.46 1093.93
  A 1.76 1.75 23.5 0 1 686.55 1091.64
  L 688.24 1087.64
  A 0.41 0.41 0.0 0 0 687.60 1087.16
  Q 675.23 1097.01 660.44 1101.94
  Q 655.87 1103.46 651.78 1103.44
  A 1.31 1.31 0.0 0 1 650.58 1101.62
  L 651.32 1099.90
  A 0.40 0.40 0.0 0 0 650.73 1099.42
  Q 641.68 1105.59 631.03 1108.51
  C 623.86 1110.47 610.72 1103.27 604.64 1099.37
  A 0.51 0.51 0.0 0 0 603.88 1099.97
  L 604.53 1101.76
  A 1.04 1.03 -20.7 0 1 603.93 1103.07
  C 600.81 1104.29 592.99 1101.28 589.45 1099.82
  Q 577.09 1094.72 567.07 1086.47
  A 0.46 0.46 0.0 0 0 566.36 1087.02
  L 568.39 1091.44
  A 1.81 1.80 -17.8 0 1 567.09 1093.96
  C 563.21 1094.72 557.10 1092.53 553.82 1091.18
  Q 535.96 1083.84 522.97 1069.36
  A 0.54 0.54 0.0 0 0 522.06 1069.90
  L 522.98 1072.46
  A 1.27 1.26 -14.8 0 1 522.00 1074.13
  Q 519.73 1074.53 517.54 1073.50
  Q 501.88 1066.21 492.52 1054.48
  Q 487.85 1048.64 487.49 1048.23
  A 0.16 0.16 0.0 0 0 487.23 1048.40
  Z
  M 264.56 623.53
  A 0.39 0.39 0.0 0 0 265.29 623.75
  C 295.96 573.62 334.60 528.34 380.16 490.92
  Q 413.70 463.38 452.39 443.79
  A 2.25 2.23 -5.6 0 0 453.52 442.43
  C 462.22 413.68 487.27 392.22 514.83 381.82
  Q 544.09 370.76 574.54 372.57
  A 1.69 1.67 -64.0 0 0 575.75 372.15
  Q 581.83 366.67 588.23 363.71
  C 608.46 354.34 632.56 353.00 653.76 357.98
  Q 671.31 362.11 682.32 371.95
  A 2.07 2.04 63.6 0 0 683.83 372.47
  Q 723.03 369.86 757.72 388.56
  C 778.91 399.97 795.69 418.95 803.38 441.78
  A 1.17 1.15 -88.5 0 0 804.04 442.49
  Q 817.72 448.19 832.80 457.43
  Q 879.95 486.33 918.53 526.48
  Q 940.76 549.60 960.47 575.77
  Q 1018.45 652.75 1051.77 743.46
  C 1068.35 788.58 1077.24 836.75 1064.44 883.34
  C 1056.39 912.61 1040.16 939.78 1019.69 962.19
  Q 1003.10 980.36 981.00 997.25
  Q 948.76 1021.91 914.25 1041.22
  Q 898.38 1050.10 880.81 1057.56
  Q 869.59 1062.33 861.82 1064.91
  A 0.44 0.43 70.3 0 1 861.27 1064.64
  L 861.18 1064.40
  A 0.86 0.86 0.0 0 1 861.60 1063.35
  Q 867.67 1060.27 882.10 1051.59
  Q 927.33 1024.37 960.37 1000.74
  C 972.66 991.95 982.69 983.84 993.62 974.14
  Q 1018.79 951.81 1036.10 923.77
  C 1044.71 909.81 1050.74 894.82 1055.11 879.04
  Q 1058.86 865.49 1059.73 849.73
  C 1061.13 824.50 1057.71 799.17 1050.81 775.18
  C 1041.34 742.26 1027.15 708.90 1010.97 677.28
  C 988.42 633.23 961.07 591.71 928.90 554.36
  Q 888.74 507.73 837.47 474.04
  C 827.68 467.61 817.99 462.19 808.71 457.43
  A 0.40 0.40 0.0 0 0 808.13 457.84
  Q 811.12 478.58 801.50 497.69
  A 0.40 0.40 0.0 0 0 801.65 498.21
  C 885.22 548.96 951.73 623.72 998.54 708.16
  Q 1015.71 739.11 1027.89 772.07
  C 1037.56 798.22 1043.26 825.99 1039.96 852.99
  C 1037.95 869.41 1031.94 887.50 1024.00 902.70
  C 1007.47 934.32 983.31 959.37 954.66 981.92
  Q 937.65 995.30 918.01 1008.76
  Q 880.23 1034.66 853.92 1050.40
  Q 840.54 1058.41 830.46 1063.74
  A 0.47 0.47 0.0 0 0 830.49 1064.58
  C 850.93 1073.50 872.74 1074.73 894.15 1068.69
  Q 906.20 1065.29 915.33 1061.32
  Q 949.61 1046.41 982.20 1023.73
  C 1001.50 1010.29 1019.77 995.46 1035.97 978.73
  Q 1050.59 963.65 1060.92 946.72
  Q 1090.04 899.04 1086.17 843.08
  Q 1084.62 820.52 1079.39 789.80
  Q 1075.04 764.26 1073.77 758.55
  Q 1064.13 715.15 1058.19 693.00
  Q 1048.53 656.92 1035.30 616.76
  C 1023.12 579.79 1008.85 544.25 993.60 509.59
  C 980.31 479.38 964.95 449.77 947.29 421.53
  Q 930.81 395.18 910.58 373.28
  Q 909.63 372.26 909.21 371.16
  C 908.41 369.09 910.49 368.15 912.03 368.52
  Q 919.56 370.37 920.77 370.47
  Q 937.52 371.85 948.85 360.04
  A 1.03 1.03 0.0 0 0 948.89 358.66
  Q 934.50 341.72 912.76 338.29
  Q 910.82 337.99 909.84 336.74
  A 2.36 2.13 -37.6 0 1 910.41 333.58
  Q 911.53 332.73 915.54 330.27
  Q 921.00 326.91 927.17 319.45
  C 931.05 314.76 933.77 308.09 934.95 302.45
  A 0.52 0.52 0.0 0 0 934.55 301.83
  C 924.75 299.67 917.73 299.07 907.79 300.43
  Q 896.07 302.02 882.56 307.32
  Q 880.29 308.21 878.41 306.08
  C 876.98 304.47 877.65 302.93 878.63 301.13
  C 893.75 273.32 911.55 246.72 932.19 223.70
  Q 947.95 206.11 966.83 192.07
  Q 975.57 185.57 984.81 181.33
  C 997.91 175.33 1003.23 185.88 1006.30 196.22
  C 1008.26 202.80 1009.95 210.98 1010.82 218.03
  C 1013.48 239.47 1013.20 261.75 1011.23 282.74
  C 1007.15 326.25 995.84 370.11 976.56 409.85
  Q 971.87 419.50 966.68 427.84
  A 0.88 0.86 45.5 0 0 966.68 428.75
  Q 980.75 451.25 992.09 475.40
  A 0.46 0.45 -46.2 0 0 992.92 475.38
  Q 1003.50 450.52 1008.77 435.81
  Q 1024.68 391.41 1034.02 345.04
  Q 1045.59 287.60 1041.29 229.50
  C 1039.61 206.89 1035.23 181.95 1026.89 160.88
  C 1022.32 149.35 1015.13 138.98 1002.45 137.01
  Q 991.12 135.24 978.98 138.00
  C 956.26 143.17 933.14 153.04 912.38 164.64
  Q 863.20 192.12 820.95 228.96
  C 813.76 235.23 804.89 243.91 799.65 248.74
  A 0.48 0.47 40.3 0 0 799.72 249.49
  C 816.36 260.34 830.91 274.26 841.32 290.69
  Q 842.24 292.15 841.50 293.59
  A 2.11 2.04 -58.7 0 1 838.46 294.39
  Q 830.73 288.82 823.04 283.54
  C 780.61 254.40 731.55 232.35 681.41 224.01
  C 630.40 215.53 578.27 219.04 529.64 235.90
  C 500.72 245.92 473.95 259.78 447.78 276.04
  Q 439.04 281.46 420.96 293.69
  C 419.51 294.67 418.28 295.24 416.92 294.06
  C 415.31 292.66 416.98 290.00 418.03 288.51
  Q 429.34 272.48 443.87 260.36
  Q 450.56 254.79 457.85 249.54
  A 0.46 0.45 -40.3 0 0 457.91 248.86
  Q 420.23 209.81 374.63 179.61
  Q 351.39 164.20 325.50 152.29
  C 307.47 143.99 289.07 137.28 269.97 135.87
  Q 260.65 135.19 251.52 138.20
  C 237.53 142.81 230.47 155.49 225.93 168.97
  C 211.66 211.26 209.23 256.44 212.55 300.25
  C 217.21 361.70 233.07 422.83 260.80 477.89
  A 0.62 0.62 0.0 0 0 261.92 477.88
  Q 274.32 452.09 288.12 429.31
  A 0.85 0.84 44.7 0 0 288.11 428.41
  Q 276.13 409.82 268.36 390.39
  Q 242.64 326.08 241.45 256.25
  Q 240.99 229.70 245.41 204.73
  Q 246.51 198.49 249.33 190.37
  C 252.38 181.59 259.46 176.93 268.73 179.82
  Q 274.26 181.55 279.00 184.26
  Q 297.00 194.59 313.33 210.70
  C 339.84 236.86 360.16 266.35 376.99 299.28
  C 377.98 301.22 379.44 303.56 377.91 305.56
  Q 375.76 308.34 372.59 306.94
  C 357.33 300.18 338.79 297.20 321.88 301.42
  A 0.95 0.95 0.0 0 0 321.18 302.51
  C 323.56 315.14 332.43 325.68 343.39 331.91
  C 345.42 333.06 347.40 334.72 345.22 336.75
  Q 344.43 337.49 343.79 337.57
  Q 322.46 340.45 306.46 357.15
  A 1.87 1.87 0.0 0 0 306.44 359.71
  C 313.77 367.68 326.82 371.84 336.88 369.34
  Q 340.16 368.53 344.10 367.79
  A 2.17 2.17 0.0 0 1 346.67 369.89
  Q 346.69 371.48 345.08 373.09
  Q 338.69 379.50 330.86 389.35
  C 309.21 416.59 291.35 447.74 275.95 478.66
  Q 257.10 516.48 240.73 556.42
  A 0.61 0.60 31.1 0 0 240.91 557.13
  C 258.71 571.75 265.31 601.63 264.56 623.53
  Z
  M 357.44 290.15
  A 0.48 0.47 81.7 0 0 357.96 289.45
  Q 345.15 266.79 327.96 245.30
  C 313.57 227.31 295.47 209.37 275.27 196.92
  C 272.67 195.31 268.52 193.33 265.39 192.64
  Q 262.76 192.07 261.81 194.33
  C 259.73 199.29 257.89 205.82 256.87 211.37
  C 251.26 241.91 252.17 273.24 256.96 304.27
  Q 261.67 334.80 270.94 362.75
  Q 280.06 390.24 294.42 416.43
  A 0.77 0.77 0.0 0 0 295.76 416.46
  Q 306.85 397.59 320.57 381.61
  A 0.40 0.40 0.0 0 0 320.35 380.95
  Q 307.21 378.09 298.21 368.86
  Q 295.37 365.94 294.24 362.91
  C 291.18 354.71 297.08 349.22 302.58 344.35
  Q 311.57 336.41 322.77 332.17
  A 0.58 0.57 -32.1 0 0 322.99 331.24
  C 315.32 323.22 308.14 310.39 309.39 299.05
  C 310.09 292.63 314.90 290.88 320.27 289.70
  Q 338.67 285.69 357.44 290.15
  Z
  M 932.65 332.51
  Q 943.80 337.29 952.38 344.87
  C 960.23 351.81 966.07 359.87 957.08 369.35
  Q 948.09 378.84 934.97 381.68
  A 0.40 0.39 -27.3 0 0 934.76 382.33
  C 943.71 392.35 951.50 404.17 959.09 415.95
  A 0.48 0.48 0.0 0 0 959.91 415.92
  Q 972.93 391.98 982.11 364.86
  C 997.26 320.13 1003.87 272.83 999.43 226.13
  Q 998.17 212.87 993.11 195.40
  Q 992.16 192.11 989.57 193.28
  Q 977.92 198.54 967.51 207.02
  C 939.67 229.69 917.84 258.53 899.45 289.42
  A 0.48 0.48 0.0 0 0 899.96 290.14
  Q 917.17 286.53 933.88 289.61
  C 940.03 290.75 945.82 292.95 946.56 299.68
  C 947.78 310.76 939.97 324.04 932.50 331.78
  A 0.46 0.45 33.5 0 0 932.65 332.51
  Z
  M 689.51 382.80
  C 696.55 398.66 687.27 414.29 675.33 424.26
  Q 657.85 438.86 634.60 443.21
  A 0.94 0.93 -5.2 0 0 633.83 444.13
  L 633.83 481.54
  A 0.98 0.97 -70.5 0 0 634.18 482.29
  C 664.76 508.29 708.05 526.74 748.95 517.92
  C 781.87 510.82 804.40 481.93 793.89 447.85
  Q 785.51 420.65 762.37 403.88
  C 741.35 388.65 715.38 381.78 689.73 382.45
  A 0.25 0.25 0.0 0 0 689.51 382.80
  Z
  M 567.64 382.43
  Q 546.05 382.52 525.33 389.11
  C 503.75 395.98 482.60 409.71 471.25 429.04
  Q 463.99 441.42 460.90 454.18
  Q 459.99 457.94 459.76 465.05
  C 458.80 495.36 484.12 515.08 511.84 519.13
  C 551.77 524.96 593.22 508.49 623.24 482.27
  A 1.44 1.44 0.0 0 0 623.74 481.18
  L 623.74 443.97
  A 0.53 0.52 6.2 0 0 623.32 443.46
  C 603.03 439.50 581.04 427.99 570.20 409.56
  Q 563.93 398.89 566.78 387.45
  C 567.21 385.71 567.97 384.36 568.23 383.17
  A 0.61 0.61 0.0 0 0 567.64 382.43
  Z
  M 447.57 459.20
  Q 446.51 459.54 444.81 460.53
  Q 425.77 471.49 410.38 482.37
  Q 362.15 516.49 325.24 559.73
  Q 309.34 578.35 295.36 597.61
  Q 279.01 620.13 265.43 642.53
  A 4.12 3.99 64.5 0 0 264.88 644.16
  Q 261.23 677.95 245.44 707.40
  Q 235.76 725.44 218.26 735.83
  A 2.20 2.16 -6.2 0 0 217.31 736.99
  C 208.45 762.56 200.84 786.61 195.41 812.55
  Q 194.67 816.10 194.28 819.98
  C 193.65 826.15 192.66 832.62 192.52 838.62
  Q 192.23 851.76 193.85 864.69
  C 196.81 888.29 205.80 910.62 219.04 929.77
  Q 235.80 954.00 258.90 973.64
  Q 277.99 989.87 299.50 1004.25
  Q 345.05 1034.70 391.61 1063.24
  A 0.54 0.54 0.0 0 1 391.64 1064.15
  L 391.61 1064.17
  A 1.53 1.52 -51.6 0 1 390.16 1064.34
  Q 365.80 1054.61 344.15 1042.57
  C 316.19 1027.02 289.46 1010.11 264.66 990.84
  C 226.57 961.25 194.59 923.31 185.26 875.00
  Q 179.38 844.54 185.37 812.06
  Q 190.78 782.78 202.18 748.14
  Q 203.18 745.10 204.87 741.09
  A 0.41 0.41 0.0 0 0 204.41 740.53
  Q 192.90 743.01 181.51 738.79
  A 0.25 0.24 16.1 0 0 181.19 738.96
  C 174.04 769.75 168.11 797.36 164.00 828.49
  Q 161.14 850.14 162.75 870.73
  Q 165.97 912.19 189.92 946.84
  Q 200.41 962.02 216.14 977.36
  Q 227.36 988.32 235.00 994.75
  C 252.67 1009.60 272.47 1023.55 292.71 1036.27
  Q 313.86 1049.55 334.50 1059.01
  Q 345.72 1064.15 357.20 1067.81
  Q 390.45 1078.43 422.21 1064.33
  A 0.33 0.33 0.0 0 0 422.25 1063.75
  Q 379.22 1036.84 337.94 1010.05
  C 287.63 977.40 233.43 936.86 215.65 876.61
  C 207.13 847.75 209.54 818.35 219.01 789.51
  Q 233.27 746.06 257.62 705.36
  Q 290.68 650.08 331.79 603.81
  Q 378.35 551.41 437.13 510.92
  C 442.45 507.25 450.24 502.45 454.92 499.70
  A 0.66 0.66 0.0 0 0 455.16 498.81
  Q 445.46 481.29 448.33 459.83
  A 0.58 0.58 0.0 0 0 447.57 459.20
  Z
  M 173.49 489.42
  A 12.33 12.33 0.0 0 0 161.16 477.09
  A 12.33 12.33 0.0 0 0 148.83 489.42
  A 12.33 12.33 0.0 0 0 161.16 501.75
  A 12.33 12.33 0.0 0 0 173.49 489.42
  Z
  M 1011.68 514.24
  C 1017.52 509.52 1022.98 501.71 1014.31 495.86
  Q 1008.70 492.07 1001.43 490.57
  A 0.60 0.60 0.0 0 0 1000.76 491.41
  L 1011.14 514.11
  A 0.35 0.35 0.0 0 0 1011.68 514.24
  Z
  M 244.07 514.31
  Q 247.70 505.32 254.63 491.88
  Q 254.87 491.41 254.72 490.98
  A 0.56 0.56 0.0 0 0 254.04 490.62
  C 247.47 492.40 240.99 494.50 237.44 500.22
  C 236.31 502.03 236.19 503.89 236.99 505.76
  Q 239.16 510.78 243.28 514.49
  A 0.49 0.49 0.0 0 0 244.07 514.31
  Z
  M 745.67 667.18
  C 757.62 665.63 766.50 664.55 772.80 664.07
  Q 835.67 659.33 897.84 670.55
  A 0.47 0.47 0.0 0 0 898.39 670.10
  Q 898.47 666.32 898.17 662.50
  C 896.13 636.69 889.40 611.73 881.31 586.93
  A 3.89 3.86 -77.2 0 0 880.30 585.31
  Q 869.43 574.86 856.52 563.74
  Q 825.46 537.00 790.24 516.12
  A 0.61 0.61 0.0 0 0 789.48 516.24
  Q 785.93 520.33 781.62 523.39
  C 765.11 535.14 745.84 539.07 725.25 538.73
  C 690.20 538.16 656.22 524.46 629.26 502.41
  A 0.76 0.76 0.0 0 0 628.30 502.41
  Q 596.35 528.41 556.71 536.38
  C 542.94 539.15 528.36 539.47 514.32 538.18
  C 496.90 536.59 478.38 529.26 466.23 517.14
  A 0.70 0.70 0.0 0 0 465.35 517.04
  Q 447.00 528.95 442.81 531.81
  Q 418.36 548.51 396.12 567.37
  Q 390.52 572.11 375.08 585.79
  Q 373.73 586.98 371.97 588.22
  Q 369.64 589.86 369.23 590.98
  C 359.73 616.78 353.39 643.17 353.03 670.66
  A 0.76 0.76 0.0 0 0 353.92 671.42
  Q 422.12 659.48 490.59 666.23
  C 495.78 666.74 501.07 667.67 506.21 668.38
  A 0.29 0.29 0.0 0 0 506.36 667.83
  C 480.69 657.15 464.01 650.03 442.95 642.79
  Q 421.34 635.36 399.95 633.52
  C 394.13 633.02 393.66 629.23 396.71 624.80
  C 403.54 614.87 414.99 604.96 426.77 601.30
  Q 437.62 597.93 446.75 599.03
  Q 463.26 601.03 481.00 607.01
  C 506.73 615.69 533.27 627.63 556.60 641.61
  C 562.50 645.15 565.86 648.41 565.95 655.02
  C 566.09 665.37 560.66 671.76 552.40 677.43
  A 0.44 0.44 0.0 0 0 552.52 678.21
  C 569.33 683.33 583.34 693.77 591.79 709.24
  A 0.73 0.73 0.0 0 0 592.64 709.58
  Q 625.91 699.52 659.00 709.42
  A 0.96 0.96 0.0 0 0 660.13 708.93
  C 668.29 692.99 681.97 683.53 698.67 677.91
  A 0.45 0.45 0.0 0 0 698.74 677.09
  Q 690.22 672.50 686.69 663.57
  C 684.20 657.26 684.70 648.46 691.04 644.54
  C 711.61 631.81 734.15 620.66 755.56 611.58
  Q 773.83 603.83 790.26 599.78
  Q 799.94 597.40 807.05 597.04
  Q 824.24 596.16 837.67 607.07
  C 842.20 610.75 854.77 622.15 854.27 627.72
  C 853.98 630.96 851.84 631.55 848.64 631.73
  Q 832.83 632.65 817.17 637.43
  C 793.79 644.57 768.97 655.67 745.54 666.72
  A 0.24 0.24 0.0 0 0 745.67 667.18
  Z
  M 172.3929 510.5417
  A 0.94 0.94 0.0 0 0 171.1980 509.9589
  L 170.7631 510.1087
  A 0.94 0.94 0.0 0 0 170.1803 511.3035
  L 186.1071 557.5583
  A 0.94 0.94 0.0 0 0 187.3020 558.1411
  L 187.7369 557.9913
  A 0.94 0.94 0.0 0 0 188.3197 556.7965
  L 172.3929 510.5417
  Z
  M 208.42 560.12
  Q 208.42 560.21 208.52 560.39
  A 0.24 0.22 -2.6 0 0 208.64 560.49
  C 224.11 568.53 232.60 591.88 235.11 608.14
  Q 239.47 636.35 233.09 664.83
  A 0.70 0.69 -76.5 0 1 232.25 665.35
  L 227.57 664.19
  A 1.16 1.15 12.7 0 0 226.16 665.08
  Q 222.76 681.63 215.94 699.25
  A 1.62 1.62 0.0 0 0 217.27 701.44
  L 232.06 703.06
  A 1.03 1.02 16.7 0 0 233.07 702.52
  Q 253.99 662.54 251.64 617.91
  Q 251.30 611.37 250.02 604.65
  C 247.49 591.40 243.32 577.68 232.85 568.42
  Q 223.05 559.76 208.96 559.59
  Q 208.42 559.58 208.42 560.12
  Z
  M 193.07 729.47
  C 201.57 730.63 212.18 725.39 218.69 720.05
  C 221.85 717.47 224.36 714.14 227.48 710.43
  A 0.55 0.55 0.0 0 0 227.06 709.52
  C 221.59 709.49 210.80 708.36 208.71 702.74
  Q 208.10 701.11 209.39 698.22
  C 213.98 687.93 217.05 678.06 220.27 665.06
  C 221.15 661.52 223.27 661.73 226.17 662.73
  A 0.82 0.81 -75.5 0 0 227.23 662.10
  Q 229.83 647.64 230.08 633.01
  Q 230.40 614.54 224.82 595.47
  C 221.23 583.22 213.61 567.63 200.66 563.39
  Q 196.78 562.12 194.69 562.68
  Q 188.31 564.37 181.07 568.46
  A 0.45 0.44 32.8 0 0 181.25 569.29
  Q 188.77 569.98 193.71 575.82
  C 201.70 585.25 205.28 596.54 207.48 608.77
  C 212.40 636.18 209.37 665.58 199.99 692.00
  Q 198.24 696.94 193.91 705.43
  C 189.84 713.42 184.16 721.11 175.32 723.02
  A 0.58 0.57 48.8 0 0 175.25 724.12
  L 182.30 726.69
  A 5.70 5.69 -47.1 0 0 186.56 726.53
  C 195.20 722.66 199.82 716.72 204.04 708.69
  A 0.97 0.97 0.0 0 1 205.85 708.92
  C 206.19 710.39 205.64 710.96 205.27 712.09
  Q 201.94 722.45 192.84 728.49
  A 0.54 0.54 0.0 0 0 193.07 729.47
  Z
  M 169.9168 594.2792
  A 50.82 22.38 -86.8 0 0 144.7349 643.7707
  A 50.82 22.38 -86.8 0 0 164.2432 695.7608
  A 50.82 22.38 -86.8 0 0 189.4251 646.2693
  A 50.82 22.38 -86.8 0 0 169.9168 594.2792
  Z
  M 891.32 796.80
  Q 893.18 793.34 895.50 787.30
  Q 902.83 768.25 909.18 741.65
  C 910.23 737.27 914.64 735.88 918.39 734.63
  Q 918.73 734.51 930.15 730.46
  C 935.40 728.60 936.05 724.01 936.25 719.50
  C 936.77 708.06 937.21 700.37 936.84 692.96
  C 936.58 687.68 934.02 684.78 928.86 683.39
  Q 906.88 677.47 882.90 674.75
  A 0.13 0.13 0.0 0 0 882.83 675.00
  Q 883.98 675.57 885.21 675.81
  Q 912.08 681.01 926.17 684.71
  C 930.54 685.85 934.51 686.67 934.61 691.14
  Q 934.93 706.97 933.65 723.89
  Q 933.43 726.79 930.34 727.88
  Q 927.89 728.74 913.79 733.98
  Q 908.51 735.95 907.51 740.07
  Q 899.07 774.90 890.99 796.65
  A 0.18 0.18 0.0 0 0 891.32 796.80
  Z
  M 355.36 789.52
  Q 347.36 763.87 342.77 742.00
  Q 341.72 737.01 336.44 734.81
  Q 330.11 732.17 320.59 728.66
  C 317.92 727.67 316.90 726.48 316.69 723.76
  Q 315.41 706.66 315.54 692.50
  Q 315.58 687.72 319.82 686.31
  Q 324.87 684.63 334.38 682.64
  Q 347.18 679.95 365.67 676.54
  A 0.21 0.21 0.0 0 0 365.82 676.22
  L 365.66 675.96
  A 0.11 0.09 -17.3 0 0 365.56 675.92
  Q 342.22 678.12 321.37 683.83
  Q 317.68 684.83 315.77 686.52
  Q 313.23 688.75 313.30 692.50
  Q 313.76 717.32 313.76 717.75
  Q 313.76 718.97 314.68 724.53
  Q 315.36 728.61 318.52 729.91
  Q 331.18 735.08 333.78 736.06
  C 337.24 737.35 339.62 739.21 340.38 742.42
  C 344.23 758.59 348.66 774.87 355.25 789.56
  A 0.06 0.06 0.0 0 0 355.36 789.52
  Z
  M 721.38 696.14
  C 704.15 701.04 685.76 707.73 681.79 727.54
  Q 680.35 734.74 680.29 739.24
  Q 679.89 768.66 691.37 795.93
  Q 692.79 799.32 695.77 804.22
  Q 699.71 810.70 700.87 812.01
  Q 709.98 822.40 718.02 826.30
  Q 734.50 834.29 754.42 836.08
  Q 778.35 838.24 797.53 836.34
  C 821.12 834.00 846.65 829.47 860.80 808.57
  C 875.31 787.15 882.80 760.01 884.33 734.21
  C 884.68 728.39 884.09 722.64 883.31 716.47
  C 880.70 695.74 858.84 690.94 842.00 688.54
  Q 816.41 684.89 789.76 686.01
  C 766.48 686.98 743.51 689.85 721.38 696.14
  Z
  M 568.00 762.87
  Q 570.64 747.86 569.30 732.51
  C 567.87 716.20 557.67 707.53 543.22 701.76
  Q 528.12 695.73 510.77 692.48
  Q 470.11 684.86 427.24 687.47
  C 414.17 688.26 399.66 689.69 386.80 694.04
  C 375.48 697.86 367.59 704.86 365.79 717.04
  Q 363.55 732.22 365.89 747.41
  C 369.44 770.45 376.71 793.95 390.74 812.25
  C 401.35 826.08 419.24 832.29 436.45 834.79
  Q 469.58 839.60 503.34 835.32
  Q 514.24 833.94 525.74 829.53
  C 553.59 818.86 563.42 789.02 568.00 762.87
  Z
  M 921.83 706.19
  A 9.93 9.93 0.0 0 0 911.90 696.26
  A 9.93 9.93 0.0 0 0 901.97 706.19
  A 9.93 9.93 0.0 0 0 911.90 716.12
  A 9.93 9.93 0.0 0 0 921.83 706.19
  Z
  M 346.99 706.56
  A 9.94 9.94 0.0 0 0 337.05 696.62
  A 9.94 9.94 0.0 0 0 327.11 706.56
  A 9.94 9.94 0.0 0 0 337.05 716.50
  A 9.94 9.94 0.0 0 0 346.99 706.56
  Z
  M 347.30 881.57
  Q 343.46 868.99 345.86 856.64
  A 0.98 0.98 0.0 0 0 345.47 855.67
  Q 342.68 853.62 342.62 848.90
  Q 342.50 839.46 342.94 835.53
  A 2.80 2.76 -53.0 0 0 342.76 834.18
  Q 341.10 830.06 340.81 827.93
  Q 339.33 816.90 338.66 802.60
  A 6.38 6.28 -61.0 0 0 337.91 799.90
  Q 331.38 787.65 321.80 777.74
  Q 315.32 771.04 304.69 769.24
  C 302.55 768.88 300.92 768.05 300.95 765.82
  C 300.98 762.20 305.77 760.53 308.88 760.90
  C 320.54 762.30 329.46 770.47 336.10 779.59
  A 0.47 0.47 0.0 0 0 336.94 779.25
  L 332.38 744.66
  A 2.30 2.27 -83.6 0 0 330.93 742.82
  Q 318.66 738.13 317.33 737.68
  Q 311.95 735.87 309.35 731.07
  A 0.40 0.38 -13.7 0 0 308.98 730.86
  Q 294.17 731.71 285.03 743.32
  Q 277.36 753.07 274.75 765.26
  C 268.07 796.56 278.52 830.16 298.30 854.46
  C 310.17 869.03 327.74 880.49 346.82 882.17
  A 0.46 0.46 0.0 0 0 347.30 881.57
  Z
  M 912.60 779.74
  Q 913.01 779.71 913.29 779.30
  Q 920.68 768.36 933.03 762.50
  C 936.27 760.96 941.85 759.88 945.26 761.37
  Q 949.34 763.15 948.43 767.01
  A 2.68 2.64 3.8 0 1 946.06 769.05
  C 934.18 770.10 924.19 779.02 918.34 788.56
  Q 915.19 793.70 910.95 801.71
  A 6.86 6.79 -30.8 0 0 910.16 804.77
  Q 910.01 813.58 909.52 820.76
  Q 908.94 829.32 906.31 834.04
  A 3.27 3.21 56.7 0 0 905.93 835.95
  C 906.54 841.63 906.55 848.31 904.66 853.81
  C 904.23 855.05 903.22 855.38 902.69 856.18
  A 1.52 1.51 -33.5 0 0 902.46 857.29
  Q 904.47 868.98 901.14 881.15
  A 0.68 0.68 0.0 0 0 901.88 882.01
  Q 913.94 880.65 924.31 875.04
  C 952.71 859.67 969.39 829.03 974.46 798.00
  Q 978.14 775.49 969.98 754.73
  C 965.22 742.65 955.88 731.86 942.12 730.73
  A 1.29 1.28 19.3 0 0 940.95 731.29
  Q 937.96 735.67 932.88 737.41
  Q 932.07 737.69 918.34 742.84
  A 1.31 1.30 -3.2 0 0 917.55 743.72
  Q 917.48 743.99 914.99 761.76
  Q 913.48 772.54 912.14 779.23
  A 0.44 0.43 3.6 0 0 912.60 779.74
  Z
  M 602.76 1009.49
  L 602.39 1006.63
  A 1.73 1.73 0.0 0 1 604.70 1004.78
  L 626.55 1012.74
  A 2.94 2.94 0.0 0 0 628.57 1012.74
  L 649.96 1005.04
  A 1.58 1.58 0.0 0 1 652.07 1006.53
  L 652.07 1009.56
  A 0.33 0.32 -11.0 0 0 652.52 1009.86
  Q 665.65 1004.55 676.33 997.21
  Q 678.62 995.64 680.36 997.85
  A 0.50 0.48 -65.1 0 1 680.46 998.15
  L 680.46 1001.42
  A 0.38 0.38 0.0 0 0 681.05 1001.74
  Q 691.99 994.46 699.38 983.40
  C 701.83 979.72 704.85 981.51 706.15 984.65
  A 0.49 0.49 0.0 0 0 707.00 984.74
  Q 716.87 970.76 718.63 954.23
  A 0.82 0.82 0.0 0 1 719.37 953.51
  Q 720.41 953.43 721.65 954.33
  A 0.45 0.45 0.0 0 0 722.36 953.92
  Q 721.83 948.91 721.72 941.50
  Q 721.71 940.09 724.22 940.64
  A 0.71 0.70 3.4 0 0 725.07 939.89
  Q 724.10 928.82 720.25 918.49
  Q 717.55 911.26 710.92 904.91
  A 1.50 1.47 67.5 0 0 709.95 904.50
  C 709.23 904.48 708.58 904.63 707.84 904.44
  Q 700.57 902.59 695.02 900.10
  A 0.41 0.41 0.0 0 0 694.44 900.48
  L 694.44 903.07
  A 1.10 1.10 0.0 0 1 693.28 904.17
  Q 682.44 903.59 671.88 900.06
  A 0.52 0.52 0.0 0 0 671.20 900.62
  L 671.43 902.35
  A 1.72 1.72 0.0 0 1 669.63 904.29
  Q 659.25 903.70 650.11 899.98
  A 0.52 0.52 0.0 0 0 649.40 900.48
  Q 649.42 901.28 649.56 901.82
  A 1.71 1.59 -2.1 0 1 647.61 903.77
  C 638.36 902.31 627.15 896.25 627.50 885.19
  C 627.89 873.18 647.08 870.18 655.46 871.67
  A 1.16 1.14 -62.0 0 0 656.48 871.35
  L 657.44 870.39
  A 1.74 1.70 -78.2 0 1 657.99 870.02
  Q 660.43 869.01 665.16 868.40
  Q 678.25 866.73 688.01 868.48
  Q 690.95 869.01 692.48 869.57
  A 0.81 0.80 -58.6 0 0 693.36 869.35
  C 694.33 868.30 694.98 867.78 696.54 867.90
  Q 709.19 868.84 721.15 873.34
  C 737.07 879.33 748.36 890.99 755.93 906.32
  Q 757.28 909.03 758.24 912.58
  A 0.70 0.70 0.0 0 1 757.79 913.42
  Q 756.59 913.81 755.44 912.85
  A 0.41 0.41 0.0 0 0 754.83 913.38
  Q 763.35 927.38 764.93 943.25
  A 0.40 0.39 64.5 0 0 765.60 943.49
  L 771.13 937.96
  A 2.80 2.80 0.0 0 1 775.50 938.47
  L 778.94 944.04
  A 0.44 0.44 0.0 0 0 779.66 944.08
  Q 781.40 941.91 789.79 932.79
  Q 793.45 928.81 805.14 920.37
  C 808.39 918.03 810.75 922.29 811.39 924.92
  A 0.64 0.64 0.0 0 0 812.51 925.17
  Q 815.66 921.28 819.87 915.88
  Q 822.12 912.99 824.40 913.42
  A 1.39 1.38 -14.7 0 1 825.21 913.89
  L 828.29 917.56
  A 0.53 0.53 0.0 0 0 829.14 917.52
  Q 834.00 910.41 839.45 899.99
  Q 840.12 898.72 842.79 896.69
  A 0.97 0.96 -50.9 0 1 843.79 896.58
  Q 846.54 897.90 848.09 900.50
  A 0.54 0.54 0.0 0 0 849.04 900.45
  Q 853.02 891.95 857.78 879.86
  Q 858.59 877.82 859.59 876.97
  A 1.93 1.92 -40.2 0 1 862.31 877.19
  L 865.06 880.47
  A 0.52 0.52 0.0 0 0 865.96 880.30
  L 875.88 849.49
  A 1.00 0.99 -58.6 0 1 877.53 849.09
  L 879.40 850.96
  A 0.57 0.57 0.0 0 0 880.36 850.69
  Q 885.09 830.68 891.42 808.96
  Q 891.51 808.69 891.42 808.35
  A 0.38 0.38 0.0 0 0 890.72 808.26
  Q 885.10 817.94 879.38 825.41
  Q 862.73 847.14 836.17 854.67
  Q 816.25 860.31 793.51 861.50
  C 767.17 862.87 740.20 861.61 716.13 852.36
  Q 693.61 843.70 679.34 824.50
  C 674.76 818.34 670.79 810.22 667.76 802.83
  Q 660.99 786.30 656.08 761.25
  Q 654.65 753.95 654.06 749.39
  A 2.41 2.41 0.0 0 0 653.00 747.71
  Q 645.03 742.41 635.24 741.23
  C 622.58 739.69 609.71 740.50 599.01 746.90
  A 3.22 3.21 -10.4 0 0 597.50 749.08
  C 592.97 773.21 587.08 797.00 574.65 818.16
  Q 562.31 839.17 540.98 849.75
  C 526.40 856.98 508.26 860.08 490.99 861.28
  Q 468.94 862.82 446.01 861.00
  Q 424.64 859.31 406.10 852.68
  Q 379.50 843.16 364.94 819.32
  Q 363.04 816.19 360.23 811.45
  A 0.21 0.20 23.0 0 0 359.85 811.60
  L 369.60 850.00
  A 0.60 0.60 0.0 0 0 370.72 850.12
  Q 371.52 848.53 372.98 848.45
  A 1.00 1.00 0.0 0 1 374.00 849.21
  Q 377.99 865.36 383.45 880.40
  A 0.57 0.57 0.0 0 0 384.47 880.50
  Q 385.90 878.19 388.56 876.62
  A 1.27 1.24 37.2 0 1 389.52 876.50
  Q 391.54 877.08 392.27 879.28
  Q 396.11 890.87 400.84 900.30
  A 0.66 0.65 -41.8 0 0 401.98 900.36
  C 403.42 898.16 407.19 893.71 409.66 897.97
  Q 416.64 909.97 421.37 917.62
  A 0.47 0.46 43.4 0 0 422.17 917.60
  Q 424.04 914.27 426.67 912.72
  A 2.53 2.51 54.8 0 1 429.87 913.28
  L 439.57 924.86
  A 0.33 0.33 0.0 0 0 440.12 924.79
  C 441.28 922.36 442.53 918.97 445.46 919.16
  Q 446.58 919.23 449.09 921.06
  Q 462.50 930.85 472.71 943.46
  A 0.78 0.77 32.7 0 0 474.07 943.17
  Q 475.14 939.03 478.85 936.82
  C 480.47 935.85 481.81 936.74 483.04 937.98
  Q 485.24 940.23 487.27 943.18
  A 0.51 0.50 29.5 0 0 488.19 942.93
  Q 488.44 938.78 489.75 934.03
  Q 492.83 922.87 498.43 913.11
  A 0.38 0.38 0.0 0 0 497.90 912.60
  L 496.19 913.65
  A 0.58 0.57 74.9 0 1 495.31 913.14
  Q 495.39 910.61 496.43 908.51
  Q 511.13 878.57 543.08 871.58
  Q 559.40 868.02 575.26 868.24
  C 579.29 868.29 581.78 869.51 586.13 869.35
  Q 592.34 869.12 597.40 871.66
  A 4.32 4.26 -32.2 0 0 599.44 872.11
  Q 599.59 872.10 603.31 871.91
  Q 612.48 871.45 620.31 876.94
  C 628.93 882.98 624.46 894.96 617.08 899.81
  Q 609.77 904.60 601.46 904.82
  A 1.24 1.23 9.2 0 1 600.26 903.17
  L 600.82 901.63
  A 0.46 0.46 0.0 0 0 600.21 901.05
  Q 591.76 904.62 580.98 905.35
  A 1.16 1.15 -81.9 0 1 579.82 903.80
  L 580.60 901.64
  A 0.55 0.55 0.0 0 0 579.89 900.94
  Q 567.66 905.58 554.73 906.01
  A 0.98 0.97 75.7 0 1 553.83 905.47
  Q 553.54 904.89 553.55 903.94
  A 0.54 0.54 0.0 0 0 552.72 903.47
  Q 548.38 906.28 543.05 908.09
  Q 542.34 908.33 541.99 908.04
  Q 541.45 907.59 541.13 907.60
  A 1.37 1.34 -69.6 0 0 540.13 908.07
  C 532.01 917.54 529.39 927.33 528.06 939.55
  A 0.71 0.71 0.0 0 0 528.76 940.34
  L 529.92 940.34
  A 0.58 0.58 0.0 0 1 530.50 940.92
  L 530.50 953.67
  A 0.49 0.49 0.0 0 0 531.31 954.05
  L 532.71 952.88
  A 0.73 0.73 0.0 0 1 533.90 953.31
  Q 536.84 969.65 546.00 983.96
  A 0.68 0.68 0.0 0 0 547.16 983.93
  Q 548.38 981.82 550.04 980.98
  A 1.62 1.62 0.0 0 1 551.98 981.35
  Q 554.05 983.72 557.32 987.69
  Q 564.32 996.16 573.41 1001.94
  A 0.38 0.38 0.0 0 0 573.97 1001.51
  C 572.84 997.94 574.43 995.05 578.34 997.46
  C 582.14 999.81 585.61 1002.16 589.10 1003.91
  Q 596.19 1007.46 602.31 1009.84
  A 0.33 0.33 0.0 0 0 602.76 1009.49
  Z
  M 440.97 1014.42
  C 435.14 1009.20 431.07 1004.81 427.74 998.62
  Q 424.64 992.87 424.61 992.85
  A 0.38 0.38 0.0 0 0 424.01 993.21
  L 424.95 1000.51
  A 0.66 0.66 0.0 0 1 423.90 1001.12
  C 415.23 994.69 408.78 985.15 404.40 975.13
  A 0.58 0.58 0.0 0 0 403.29 975.44
  L 404.62 985.56
  A 0.36 0.36 0.0 0 1 404.02 985.87
  Q 386.54 970.37 380.48 948.06
  A 0.29 0.29 0.0 0 0 379.91 948.08
  L 378.79 954.68
  A 1.15 1.15 0.0 0 1 376.87 955.32
  Q 373.37 951.99 371.18 947.31
  Q 365.44 935.07 364.08 921.71
  A 0.37 0.37 0.0 0 0 363.35 921.65
  L 361.53 929.02
  A 0.49 0.49 0.0 0 1 360.76 929.29
  Q 360.36 928.97 360.11 928.38
  C 355.04 916.40 352.23 902.69 353.24 889.63
  Q 353.73 883.20 353.73 883.19
  A 0.34 0.34 0.0 0 0 353.13 883.17
  Q 352.47 884.38 352.18 885.71
  Q 351.07 890.93 350.59 897.04
  A 1.06 1.06 0.0 0 1 349.68 898.00
  L 347.07 898.34
  A 0.83 0.83 0.0 0 0 346.35 899.22
  Q 347.23 913.31 352.46 926.07
  C 353.72 929.14 355.37 933.13 359.35 932.85
  A 0.96 0.95 -5.8 0 1 360.36 933.67
  C 361.39 940.98 364.86 951.84 371.36 956.21
  A 1.38 1.36 -31.5 0 0 372.31 956.43
  Q 372.86 956.35 373.72 955.94
  A 0.72 0.71 69.7 0 1 374.73 956.41
  L 375.75 960.45
  A 1.21 1.20 78.8 0 0 377.07 961.34
  L 377.86 961.24
  A 0.92 0.90 74.0 0 1 378.81 961.78
  Q 382.89 971.14 387.48 976.80
  C 392.69 983.22 398.14 989.07 404.83 993.25
  A 2.42 2.38 56.7 0 0 406.40 993.59
  L 406.93 993.52
  A 1.22 1.22 0.0 0 1 408.03 993.95
  L 414.59 1001.78
  A 2.35 2.31 76.4 0 0 415.81 1002.54
  L 417.44 1002.95
  A 1.62 1.57 77.2 0 1 418.34 1003.54
  Q 419.95 1005.62 422.19 1007.12
  A 0.85 0.83 33.9 0 0 423.35 1006.91
  Q 423.78 1006.30 424.51 1006.50
  A 1.20 1.18 79.2 0 1 425.13 1006.93
  Q 430.70 1014.27 439.14 1019.83
  A 2.05 2.04 41.7 0 0 441.59 1019.69
  L 442.92 1018.58
  A 0.76 0.75 51.5 0 1 444.00 1018.71
  C 447.71 1023.66 454.47 1030.04 460.55 1031.87
  A 0.89 0.88 -65.5 0 0 461.56 1031.49
  L 462.54 1029.94
  A 1.33 1.33 0.0 0 1 464.61 1029.72
  Q 471.84 1037.11 481.90 1040.32
  A 0.34 0.34 0.0 0 0 482.31 1039.84
  Q 481.20 1037.52 481.02 1035.03
  A 1.39 1.37 -77.8 0 0 480.31 1033.91
  Q 469.93 1028.23 462.46 1018.11
  A 0.32 0.32 0.0 0 0 461.89 1018.34
  L 462.90 1025.99
  A 0.50 0.50 0.0 0 1 462.16 1026.49
  C 453.55 1021.41 446.57 1014.22 441.18 1005.77
  A 0.31 0.31 0.0 0 0 440.61 1005.96
  L 441.31 1014.25
  A 0.21 0.20 18.3 0 1 440.97 1014.42
  Z
  M 895.79 885.54
  Q 895.68 887.08 895.61 892.03
  Q 895.33 911.87 886.76 931.27
  Q 886.05 932.87 884.24 931.46
  A 0.77 0.77 0.0 0 0 883.01 931.94
  Q 880.92 944.00 874.58 954.05
  Q 873.77 955.34 872.63 955.58
  A 1.40 1.34 83.1 0 1 871.02 954.25
  Q 870.84 950.09 870.65 949.14
  Q 870.57 948.75 870.22 948.57
  A 0.56 0.51 20.0 0 0 869.42 948.90
  C 867.43 960.88 859.33 973.37 851.32 982.35
  Q 848.93 985.02 845.75 987.29
  A 0.34 0.34 0.0 0 1 845.21 986.97
  L 846.29 977.07
  A 0.30 0.30 0.0 0 0 845.72 976.90
  Q 842.08 983.66 838.56 989.04
  Q 830.95 1000.72 820.38 1008.13
  Q 819.80 1008.54 819.39 1008.63
  A 0.37 0.37 0.0 0 1 818.94 1008.21
  L 820.68 997.95
  A 0.38 0.38 0.0 0 0 820.00 997.67
  C 815.79 1003.56 811.12 1009.89 805.86 1014.69
  Q 799.42 1020.56 790.74 1025.92
  A 0.41 0.41 0.0 0 1 790.12 1025.50
  L 791.74 1015.91
  A 0.44 0.44 0.0 0 0 790.95 1015.57
  Q 783.14 1025.95 773.05 1032.73
  A 4.85 4.78 -8.3 0 0 771.13 1035.27
  L 769.47 1040.43
  A 0.29 0.29 0.0 0 0 769.87 1040.79
  Q 779.79 1036.40 786.41 1028.97
  A 1.02 1.02 0.0 0 1 787.89 1028.93
  L 790.50 1031.54
  A 0.85 0.84 -32.6 0 0 791.39 1031.73
  C 801.53 1027.93 810.62 1019.71 816.95 1011.02
  A 0.86 0.86 0.0 0 1 818.37 1011.07
  L 820.20 1014.04
  A 0.67 0.67 0.0 0 0 821.09 1014.28
  Q 836.23 1006.05 844.61 991.50
  A 0.40 0.39 -50.2 0 1 845.25 991.44
  L 846.99 993.52
  A 0.84 0.84 0.0 0 0 848.10 993.69
  Q 853.30 990.31 857.64 985.39
  Q 868.99 972.54 874.80 956.48
  A 0.71 0.71 0.0 0 1 875.86 956.14
  Q 876.66 956.67 877.63 956.68
  A 1.44 1.41 -65.2 0 0 878.61 956.31
  C 884.73 950.76 887.99 942.29 889.50 934.15
  A 1.19 1.17 -11.7 0 1 890.02 933.37
  Q 893.90 930.84 894.95 928.37
  Q 900.87 914.46 902.11 899.14
  A 0.76 0.75 -87.6 0 0 901.36 898.32
  L 898.78 898.32
  A 0.64 0.63 -4.2 0 1 898.15 897.78
  L 896.54 885.52
  A 0.38 0.38 0.0 0 0 895.79 885.54
  Z"
/>
<g>
<path fill="#ffffff" d="
  M 412.04 397.39
  C 402.53 392.35 419.52 376.79 423.79 373.23
  Q 428.25 369.52 436.18 364.86
  C 454.32 354.20 475.59 350.18 495.79 356.87
  C 498.77 357.86 501.47 359.60 502.30 362.59
  C 503.13 365.55 500.25 368.59 497.48 368.45
  C 469.57 367.01 440.49 379.36 418.60 396.13
  Q 416.03 398.10 413.11 397.73
  A 3.48 3.36 61.6 0 1 412.04 397.39
  Z"
/>
<path fill="#ffffff" d="
  M 754.81 365.98
  C 753.51 361.43 756.52 359.07 760.21 357.65
  C 783.92 348.49 810.87 356.45 830.23 371.72
  Q 839.26 378.84 844.37 387.00
  Q 847.08 391.33 845.02 395.19
  Q 843.61 397.84 840.97 397.85
  C 838.38 397.85 834.11 394.04 831.90 392.40
  C 810.95 376.82 785.16 367.72 758.69 368.67
  Q 757.21 368.72 755.35 366.89
  A 2.16 2.08 15.4 0 1 754.81 365.98
  Z"
/>
<ellipse fill="#ffffff" cx="0.00" cy="0.00" transform="translate(752.42,446.03) rotate(-147.7)" rx="8.65" ry="5.49"/>
<ellipse fill="#ffffff" cx="0.00" cy="0.00" transform="translate(506.63,446.17) rotate(-33.4)" rx="8.74" ry="5.38"/>
<ellipse fill="#ffffff" cx="0.00" cy="0.00" transform="translate(166.68,645.08) rotate(-87.2)" rx="38.88" ry="14.24"/>
<path fill="#ffffff" d="
  M 805.64 708.27
  A 0.37 0.37 0.0 0 0 805.36 708.88
  C 816.96 722.43 820.89 740.64 819.76 758.33
  Q 817.92 787.10 799.48 806.09
  Q 784.51 821.50 762.80 821.90
  C 748.38 822.16 733.77 817.05 723.96 806.44
  C 707.00 788.11 703.03 757.72 713.89 735.50
  A 0.55 0.55 0.0 0 0 713.40 734.71
  Q 710.50 734.70 710.49 734.70
  C 707.47 734.52 707.29 731.45 708.50 729.21
  C 713.66 719.62 725.81 710.52 734.71 705.95
  C 764.69 690.59 801.37 688.34 833.60 696.15
  C 845.20 698.96 855.26 702.05 864.34 709.13
  Q 865.68 710.17 867.03 712.75
  A 2.12 2.11 -58.9 0 1 867.27 713.73
  Q 867.20 722.60 866.25 728.25
  C 863.91 742.14 861.83 751.47 856.82 762.56
  Q 856.52 763.21 856.04 763.63
  A 0.72 0.71 -16.8 0 1 854.86 763.00
  C 856.86 747.74 857.45 733.00 854.14 718.38
  Q 853.70 716.43 851.85 715.91
  C 835.78 711.37 821.42 708.28 805.64 708.27
  Z
  M 765.29 740.61
  A 17.99 17.99 0.0 0 0 747.30 722.62
  A 17.99 17.99 0.0 0 0 729.31 740.61
  A 17.99 17.99 0.0 0 0 747.30 758.60
  A 17.99 17.99 0.0 0 0 765.29 740.61
  Z
  M 776.35 791.54
  L 775.20 791.06
  A 1.14 1.12 -48.6 0 0 774.17 791.13
  Q 765.78 796.16 756.30 794.58
  C 746.63 792.96 739.81 787.19 736.32 778.00
  A 0.40 0.40 0.0 0 0 735.73 777.80
  L 722.90 785.72
  A 1.13 1.13 0.0 0 0 722.46 787.15
  C 737.98 822.17 786.89 820.69 802.23 786.46
  A 0.61 0.61 0.0 0 0 802.08 785.77
  Q 795.35 779.68 786.64 776.34
  A 0.43 0.43 0.0 0 0 786.08 776.60
  Q 784.35 781.45 781.01 786.02
  Q 777.89 790.29 777.30 791.24
  A 0.77 0.76 -62.2 0 1 776.35 791.54
  Z"
/>
<path fill="#ffffff" d="
  M 395.22 763.27
  A 0.72 0.71 -57.3 0 1 393.85 763.57
  Q 385.27 743.64 383.00 722.26
  Q 382.38 716.44 382.75 714.10
  A 4.33 3.95 63.4 0 1 383.04 713.07
  Q 384.64 709.36 389.03 706.99
  Q 404.17 698.84 420.63 695.59
  Q 451.96 689.40 483.94 695.34
  C 499.55 698.23 514.94 703.84 526.93 713.28
  C 529.11 715.00 550.94 732.76 540.17 734.90
  Q 539.33 735.06 538.12 734.91
  A 0.52 0.51 -6.5 0 0 537.57 735.60
  Q 546.66 759.68 539.08 784.33
  C 533.60 802.15 519.34 817.55 500.67 821.12
  C 481.82 824.72 462.25 819.29 449.06 805.23
  C 432.66 787.73 427.38 761.12 431.70 738.35
  Q 434.77 722.13 445.34 709.09
  A 0.40 0.40 0.0 0 0 445.01 708.44
  Q 420.42 709.70 397.61 716.73
  A 1.92 1.91 -0.9 0 0 396.33 718.04
  C 393.48 728.36 393.28 738.36 393.57 748.88
  C 393.71 753.69 395.12 758.70 395.22 763.27
  Z
  M 486.2072 737.0236
  A 18.29 17.89 -168.5 0 0 500.5633 758.2009
  A 18.29 17.89 -168.5 0 0 522.0528 744.3164
  A 18.29 17.89 -168.5 0 0 507.6967 723.1391
  A 18.29 17.89 -168.5 0 0 486.2072 737.0236
  Z
  M 464.01 775.88
  L 448.31 785.57
  A 0.85 0.85 0.0 0 0 447.99 786.65
  C 450.54 792.12 452.95 796.30 457.37 800.42
  Q 467.57 809.93 481.90 812.41
  C 492.88 814.31 505.99 811.46 515.06 804.70
  A 0.78 0.78 0.0 0 0 514.90 803.36
  C 512.08 802.13 509.91 800.52 507.97 797.56
  Q 506.38 795.13 504.24 792.49
  A 1.05 1.05 0.0 0 0 503.01 792.18
  C 495.29 795.43 487.07 796.02 479.23 792.51
  Q 468.20 787.56 465.13 776.32
  A 0.75 0.75 0.0 0 0 464.01 775.88
  Z
  M 514.62 779.20
  Q 512.31 786.45 508.80 792.64
  Q 507.89 794.24 509.22 796.55
  C 513.49 803.97 520.87 799.10 524.23 793.97
  Q 525.97 791.32 527.45 787.62
  A 1.30 1.29 -63.2 0 0 526.94 786.05
  L 515.55 778.86
  A 0.63 0.62 -64.9 0 0 514.62 779.20
  Z"
/>
<path fill="#ffffff" d="
  M 550.34 916.41
  Q 551.54 913.47 555.28 913.47
  A 2.44 2.41 -27.3 0 1 556.66 913.90
  L 563.03 918.23
  Q 563.11 918.28 563.19 918.33
  Q 570.15 922.29 584.19 925.33
  Q 614.79 931.97 646.49 927.89
  Q 664.09 925.63 679.85 919.56
  C 687.29 916.70 692.83 914.08 698.08 908.97
  A 4.25 4.25 0.0 0 1 704.18 909.14
  L 704.19 909.16
  A 4.34 4.34 0.0 0 1 704.02 915.20
  Q 700.24 918.88 696.18 921.22
  Q 682.14 929.31 665.39 933.46
  Q 632.06 941.74 598.05 937.07
  C 582.65 934.95 567.91 931.20 554.96 923.55
  C 552.65 922.19 549.16 919.32 550.34 916.41
  Z"
/>
</g>
</svg>
